<svg version="1.1" viewBox="0.0 0.0 210.0 210.0" width="210" height="210" fill="none" stroke="none" stroke-linecap="square" stroke-miterlimit="10" xmlns:xlink="http://www.w3.org/1999/xlink" xmlns="http://www.w3.org/2000/svg"><clipPath id="p.0"><path d="m0 0l210.0 0l0 210.0l-210.0 0l0 -210.0z" clip-rule="nonzero"/></clipPath><g clip-path="url(#p.0)"><path fill="#000000" fill-opacity="0.0" d="m0 0l210.0 0l0 210.0l-210.0 0z" fill-rule="evenodd"/><defs><linearGradient id="p.1" gradientUnits="userSpaceOnUse" gradientTransform="matrix(12.784751355798159 0.0 0.0 12.784751355798159 0.0 0.0)" spreadMethod="pad" x1="3.1305683113609413" y1="1.8205869932279621" x2="3.1305219992303157" y2="14.605338348942242"><stop offset="0.0" stop-color="#ffc102"/><stop offset="1.0" stop-color="#795c04"/></linearGradient></defs><path fill="url(#p.1)" d="m40.023537 23.27622l129.95367 0l0 130.75952l-64.97683 32.68988l-64.97684 -32.68988z" fill-rule="evenodd"/><path fill="#ffffff" d="m142.21523 120.13597l-32.953133 0l0 -3.359375q1.0625 -0.078125 3.125 -0.25q2.0625 -0.171875 2.84375 -0.515625q1.59375 -0.640625 2.1875 -1.6875q0.609375 -1.0625 0.609375 -2.703125l0 -21.0l-26.046875 0l0 20.53125q0 1.46875 0.625 2.625q0.625 1.15625 2.125 1.796875q0.8125 0.34375 2.78125 0.734375q1.984375 0.390625 3.234375 0.46875l0 3.359375l-32.953125 0l0 -3.359375q1.078125 -0.03125 3.15625 -0.265625q2.078125 -0.25 3.03125 -0.59375q1.546875 -0.546875 2.140625 -1.6875q0.609375 -1.140625 0.609375 -2.6875l0 -43.140625q0 -1.5 -0.546875 -2.53125q-0.53125 -1.03125 -2.203125 -1.8125q-1.25 -0.5625 -3.265625 -1.0q-2.015625 -0.453125 -2.921875 -0.546875l0 -3.34375l32.953125 0l0 3.34375q-1.328125 0.09375 -3.1875 0.4375q-1.84375 0.34375 -2.828125 0.640625q-1.671875 0.5625 -2.21875 1.78125q-0.53125 1.21875 -0.53125 2.59375l0 18.21875l26.046875 0l0 -17.78125q0 -1.5 -0.5625 -2.53125q-0.5625 -1.03125 -2.234375 -1.8125q-1.125 -0.515625 -3.0 -0.96875q-1.859375 -0.453125 -2.96875 -0.578125l0 -3.34375l32.953133 0l0 3.34375q-1.375 0.09375 -3.09375 0.375q-1.71875 0.265625 -3.09375 0.703125q-1.640625 0.5625 -2.203125 1.765625q-0.546875 1.203125 -0.546875 2.609375l0 43.1875q0 1.546875 0.546875 2.625q0.5625 1.078125 2.203125 1.796875q1.03125 0.4375 2.984375 0.78125q1.953125 0.34375 3.203125 0.421875l0 3.359375z" fill-rule="nonzero"/><path fill="#000000" fill-opacity="0.0" d="m51.041996 36.56693l107.916016 0l0 109.490814l-53.958008 27.372711l-53.958004 -27.372711z" fill-rule="evenodd"/><path stroke="#ffffff" stroke-width="4.0" stroke-linejoin="round" stroke-linecap="butt" d="m51.041996 36.56693l107.916016 0l0 109.490814l-53.958008 27.372711l-53.958004 -27.372711z" fill-rule="evenodd"/></g></svg>